<svg xmlns="http://www.w3.org/2000/svg" viewBox="0 0 24 24" fill="none" stroke="currentColor" stroke-width="2" stroke-linecap="round" stroke-linejoin="round" class="lucide lucide-code-x">
  <path d="M14.5 15 12 12.5 14.5 10"></path>
  <path d="M9.5 10 12 12.5 9.5 15"></path>
  <path fill="#2563EB" d="M8 21v-2a4 4 0 0 0-4-4H3a1 1 0 0 1-1-1V8a1 1 0 0 1 1-1h1a4 4 0 0 0 4-4V1"></path>
  <path fill="#7C3AED" d="M16 21v-2a4 4 0 0 1 4-4h1a1 1 0 0 0 1-1V8a1 1 0 0 0-1-1h-1a4 4 0 0 1-4-4V1"></path>
</svg>